<svg xmlns="http://www.w3.org/2000/svg" viewBox="0 0 25 25" width="25" height="25"><path d="M-1-1h27v27H-1z" fill="none"/><path d="M-1-1h1148v829H-1V-1zm0 0h582v402H-1V-1z" fill="none"/><path d="M7.725 11.33q-.504-.498-1.215-.495-.71.003-1.21.507t-.496 1.215q.003.71.507 1.21.505.5 1.218.496.713-.003 1.21-.507t.496-1.215q0-.71-.507-1.21zm15.54-4.72q.504.5.507 1.2l.052 9.31q-.016.72-.506 1.216-.5.504-1.2.507l-13.554.052q-.71.013-1.57-.338-.86-.35-1.362-.85l-3.958-3.924q-.494-.49-.498-1.21-.004-.72.487-1.214L5.585 7.4q.5-.503 1.356-.862.857-.36 1.578-.362l13.534-.07q.72.015 1.216.505z" fill="#fff"/></svg>
