<svg xmlns="http://www.w3.org/2000/svg" height="24" width="24" viewBox="0 0 24.000548 26.182415"><g><g stroke="null"><path d="M8.728 9.818h2.18v4.364H8.73zm-9.82-4.363h3.273v3.272h-3.27zm0-4.364h16.365v3.273H-1.09zm0 8.728h3.273v3.273h-3.27zm0 4.364h3.273v3.272h-3.27zm4.365-8.727h3.272v3.272H3.273zm0 4.363h3.272v3.273H3.273zm0 4.364h3.272v3.272H3.273zm4.364-8.727h3.272v3.272H7.636zm4.364 0h3.273v3.272H12zM8.73 22.91H24v2.18H8.727zm-1.09-12h2.18V24h-2.18z" fill="#fff"/><path d="M8.182 13.636h16.364" stroke="#fff" stroke-width="1.0902319999999999" stroke-linecap="square"/><path d="M15.273 9.818h2.182v3.273h-2.182zm6.545 0H24v4.364H21.82zm1.092 1.092h2.18V24h-2.177zm-4.364-3.272h2.182V12h-2.182zm-6.545 0h2.182V12h-2.18zM9.82 22.908H22.91v1.09H9.818zm0-8.728H22.91v1.09H9.818zm0 1.09h1.09v8.728H9.82zm12 0h1.092v7.637h-1.09z" fill="#fff"/></g></g></svg>
