<svg xmlns="http://www.w3.org/2000/svg" width="24" height="24" viewBox="0 0 24 24"><path d="m 256.75494,322.7326 c 3.57895,-0.7205 6.3158,-4.32304 6.3158,-8.64608 h -2.84211 c 0,3.08788 -2.21053,5.66112 -4.94738,5.66112 -2.73685,0 -4.94738,-2.57324 -4.94738,-5.66112 h -2.84211 c 0,4.32304 2.73685,7.92559 6.42107,8.64608 v 3.70547 h 2.84211 v -3.70547 z m -1.36843,-3.70546 c 2.42106,0 4.3158,-2.26446 4.3158,-4.94062 0,-2.16152 -1.26315,-4.01426 -2.94737,-4.63183 v -5.45527 h -2.84211 v 5.45527 c -1.68422,0.61757 -2.94737,2.47031 -2.94737,4.63183 0.10531,2.67616 1.99999,4.94062 4.42105,4.94062 z" fill="none" stroke="#fff" stroke-width="1.561" transform="translate(-243.281 -303.219)"/></svg>
