<svg xmlns="http://www.w3.org/2000/svg" viewBox="0 0 25 27" width="25" height="27"><path fill="#fff" d="M8.7 10.7c-.3.1-.6.1-.9.1-1.8 0-3.3-1.5-3.3-3.4C4.4 5.6 5.9 4 7.7 4c1.6 0 2.9 1.1 3.2 2.5 1-1 2.2-1.7 3.5-2.1C13.3 1.8 10.8 0 7.7 0 3.7 0 .4 3.3.4 7.4c0 4.1 4.5 10.1 7.4 14.2.6-.9 1.4-2 2.2-3.1-1-2-1.6-3.9-1.6-5.6 0-.8.1-1.5.3-2.2zm8.4-5.3c-4.1 0-7.3 3.3-7.3 7.4 0 4.1 4.5 10.1 7.4 14.2 2.7-4 7.3-10.1 7.3-14.2-.1-4.1-3.4-7.4-7.4-7.4zm0 10.8c-1.8 0-3.3-1.5-3.3-3.4s1.5-3.4 3.3-3.4c1.8 0 3.3 1.5 3.3 3.4s-1.5 3.4-3.3 3.4z"/></svg>
