<svg xmlns="http://www.w3.org/2000/svg" xmlns:xlink="http://www.w3.org/1999/xlink" width="25" height="23" viewBox="0 0 25 23"><defs><path id="a" d="M0 23V0h.987l.017 21.986 23.996.05V23H0zm8-2V1c0-.55.447-1 1-1h3c.552 0 1 .45 1 1v20H8zm-6 0V7c0-.552.448-1 1-1h3c.553 0 1 .45 1 1v14H2zm12 0v-8c0-.553.446-1 1-1h3c.55 0 1 .447 1 1v8h-5zm6 0v-2c0-.553.448-1 1-1h3c.553 0 1 .447 1 1v2h-5z"/></defs><use xlink:href="#a" overflow="visible" fill="#fff"/><clipPath><use xlink:href="#a" overflow="visible"/></clipPath></svg>
