<svg xmlns="http://www.w3.org/2000/svg" width="26" height="20" viewBox="0 0 26 20"><g fill="#fff"><path d="M26 20c-.57 0-1.112-.137-1.6-.376-.496-.244-1.06-.39-1.648-.39-.59 0-1.154.147-1.65.39-.487.24-1.03.376-1.6.376s-1.114-.137-1.6-.376c-.504-.244-1.067-.39-1.65-.39-.588 0-1.15.147-1.65.39-.486.24-1.037.376-1.6.376-.57 0-1.112-.137-1.604-.376-.5-.244-1.06-.39-1.644-.39-.59 0-1.152.147-1.652.39-.484.24-1.034.376-1.604.376-.56 0-1.112-.137-1.597-.376-.498-.244-1.06-.39-1.65-.39-.584 0-1.145.147-1.645.39C1.112 19.864.57 20 0 20v-2.586c.57 0 1.112-.14 1.605-.37.5-.25 1.06-.398 1.645-.398.59 0 1.152.147 1.65.397.485.23 1.036.37 1.598.37.57 0 1.12-.14 1.605-.37.5-.25 1.063-.397 1.652-.397.583 0 1.145.147 1.644.397.49.23 1.033.37 1.603.37.564 0 1.115-.14 1.6-.37.498-.25 1.062-.397 1.65-.397.582 0 1.145.147 1.65.397.485.23 1.03.37 1.6.37s1.112-.14 1.6-.37c.496-.25 1.06-.397 1.65-.397.59 0 1.15.147 1.648.397.487.23 1.03.37 1.6.37V20zM22.234 12.685c1.707 0 3.093-1.5 3.093-3.34 0-1.84-1.386-3.334-3.093-3.334-1.71 0-3.094 1.494-3.094 3.335 0 1.84 1.26 3.34 3.094 3.34zM4.22 14.562c.24.062.466.152.682.257.484.235 1.036.376 1.597.376.568 0 1.12-.14 1.604-.377.5-.245 1.062-.4 1.65-.4.585 0 1.146.155 1.645.4.49.235 1.033.376 1.602.376.564 0 1.115-.14 1.6-.377.498-.245 1.06-.4 1.65-.4.582 0 1.146.155 1.65.4.486.235 1.03.376 1.6.376.414 0 .814-.076 1.19-.203L15.534 4.96l6-1.18c.88-.182 1.52-.928 1.52-1.883C23.055.844 22.26 0 21.29 0c-.07 0-.136 0-.2.006l-9.27 1.82c-.65.16-1.513 1.187-1.022 2.447l.08.203 2.418 4.708-9.074 5.378z"/></g></svg>
