<svg xmlns="http://www.w3.org/2000/svg" width="25" height="25"><path fill="none" d="M-1-1h27v27H-1z"/><path fill="none" d="M-1-1h1148v829H-1V-1zM-1-1h582v402H-1V-1z"/><path fill="#4675a8" stroke="null" d="M7.725 11.33q-.504-.498-1.215-.495t-1.21.507-.496 1.215.507 1.21 1.217.496 1.21-.507.496-1.215-.507-1.21zm15.54-4.72q.504.5.507 1.2l.052 9.31q-.016.72-.506 1.216-.5.504-1.2.507l-13.554.052q-.71.013-1.57-.338t-1.362-.85l-3.958-3.924q-.494-.49-.498-1.21t.487-1.214L5.585 7.4q.5-.503 1.356-.862t1.577-.362l13.534-.07q.72.015 1.216.505z"/></svg>