<svg xmlns="http://www.w3.org/2000/svg" viewBox="-701 518 334.9 16"><path d="M-691.8 529h-6l-1.5 4.8h-1.7l5-15.5h2.3l5.2 15.4h-1.7l-1.6-4.7zm-5.6-1.4h5.1l-2.5-8.1-2.6 8.1zM-674.6 518.3v15.4h-1.5l-.1-1.9c-.9 1-2.3 2.2-4.7 2.2-3.4 0-4.8-2.3-4.8-5.2v-10.5h1.7v10.5c0 2.1.9 3.8 3.5 3.8 2.3 0 3.6-1.3 4.3-2.5v-11.8h1.6zM-660.3 519.7h-4.6v14.1h-1.7v-14.1h-4.6v-1.4h10.8v1.4h.1zM-646 524.3v3.4c0 3.5-1.9 6.2-6 6.2s-6-2.8-6-6.2v-3.4c0-3.6 1.9-6.3 6-6.3 4.2 0 6 2.8 6 6.3zm-10.3 0v3.5c0 2.7 1.3 4.8 4.3 4.8 3.1 0 4.3-2.1 4.3-4.8v-3.5c0-2.8-1.3-5-4.3-5-3 .1-4.3 2.1-4.3 5zM-631 524.5v2.7c0 4-2.4 6.6-6.8 6.6h-3.8v-15.5H-637.3c4.2 0 6.3 2.5 6.3 6.2zm-1.7-.1c0-3-1.6-4.8-4.7-4.8h-2.6v12.7h2.2c3.4 0 5.1-1.8 5.1-5.2v-2.7zM-625.2 519.6v5.5h6.2v1.4h-6.2v5.9h6.7v1.3h-8.3v-15.4h8.4v1.3h-6.8zM-615.7 529.5h1.6c.1 1.7 1.1 3.2 4.1 3.2s3.7-1.5 3.7-2.6v-.5c0-1.6-.9-2.1-3.2-2.9l-2.2-.7c-2.4-.8-3.4-1.8-3.4-3.7v-.6c0-1.7 1.4-3.7 5.2-3.7 3.5 0 5.2 1.9 5.3 4.3h-1.6c-.1-1.5-1-3-3.7-3s-3.5 1.3-3.5 2.4v.4c0 1.1.7 1.8 2.8 2.5l2.2.7c2.5.8 3.8 1.8 3.8 4v.6c0 2.1-1.5 4.1-5.4 4.1-3.6 0-5.5-1.9-5.7-4.5zM-589.5 532.5v1.1c-.2.1-.5.2-.9.2-1 0-1.6-.4-2.4-1.4l-4.2-6.1-2.2 2.7v4.7h-1.6v-15.4h1.6v8.5l6.8-8.5h1.8l-5.4 6.8 4.6 6.7c.4.6.8.8 1.4.8.2 0 .4 0 .5-.1zM-585.4 519.9v.5c0 .9-.7 1.6-1.8 1.6-1 0-1.8-.7-1.8-1.6v-.5c0-.8.8-1.5 1.8-1.5 1.1 0 1.8.7 1.8 1.5zm-.3 0c0-.7-.6-1.3-1.6-1.3-.9 0-1.6.6-1.6 1.3v.6c0 .8.7 1.4 1.6 1.4 1 0 1.6-.5 1.6-1.4v-.6zm-.7 1.2c.1 0 .1 0 0 0v.2h-.2c-.1 0-.2-.1-.3-.2l-.4-.7h-.4v.9h-.3v-2.1h.6c.4 0 .7.2.7.6v.2c0 .3-.1.4-.4.5l.3.6h.4zm-.4-1.2v-.2c0-.2-.2-.3-.5-.3h-.3v.8h.3c.3 0 .5-.1.5-.3zM-565.9 528.8v.9c0 2.3-2.3 4-6 4h-4.7v-15.4h4.8c3.3 0 5.5 1.4 5.5 3.8v1c0 1.6-1.2 2.4-2.3 2.6 1.1.2 2.7 1 2.7 3.1zm-7.9-8.5v4.7h2.4c1.3 0 2.2-.6 2.2-1.9v-.8c0-1.3-1-2-2.6-2h-2zm5.1 8.5c0-1.2-.9-1.9-2.6-1.9h-2.6v4.8h2c2 0 3.2-.7 3.2-2.1v-.8zM-562.5 518.3h2.8v15.4h-2.8v-15.4zM-540.8 518.3v15.4h-2.7v-10.9l-3.3 10.9h-3l-3.4-11.4v11.4h-2.5v-15.4h3.6l3.8 13.2 3.9-13.2h3.6zM-531.9 529.7h2.6c.2 1.1 1.1 2.2 3 2.2 1.5 0 2.9-.7 2.9-2.4v-.6c0-1.9-2-2.4-3.1-2.4h-1.4v-2h1.4c1.1 0 2.5-.4 2.5-2v-.4c0-1.4-1.1-1.9-2.5-1.9-1.7 0-2.5 1-2.6 2.2h-2.6c.1-2.3 2-4.3 5.4-4.3 2.9 0 5 1.5 5 3.8v.9c0 1.4-1.2 2.4-2.6 2.8 1.3.2 3.2 1.4 3.2 3.3v1c0 2.5-2.3 4.3-5.6 4.3-3.5-.2-5.3-2.2-5.6-4.5zM-507 528.2v.9c0 2.5-1.9 4.9-5.6 4.9-3.5 0-5.4-2.2-5.4-4.9v-5.7c0-2.5 1.5-5.4 5.5-5.4 3.1 0 5.2 1.5 5.3 4.1h-2.6c0-1.3-1.1-2-2.7-2-1.9 0-2.8 1.1-2.8 3.1v2.2c.8-1 2-1.6 3.7-1.6 2.9 0 4.6 2 4.6 4.4zm-2.7 0c0-1.3-.8-2.4-2.3-2.4s-2.5.6-3.4 1.7v1.7c0 1.4.9 2.6 2.8 2.6s2.9-1.2 2.9-2.8v-.8zM-504.3 528.6v-5.2c0-3.4 2.1-5.4 5.7-5.4 3.5 0 5.5 2 5.5 5.4v5.2c0 3.3-2 5.4-5.5 5.4-3.6 0-5.7-2.1-5.7-5.4zm8.5.1v-5.3c0-2.2-1.1-3.3-2.8-3.3-1.8 0-2.9 1.1-2.9 3.3v5.3c0 2.1 1.1 3.2 2.9 3.2 1.7-.1 2.8-1.1 2.8-3.2zM-491.6 518.3h1.9v.3h-.8v2h-.4v-2h-.8v-.3h.1zm4.8 0v2.3h-.3v-1.7l-.7 1.8h-.4l-.7-1.8v1.8h-.3v-2.4h.5l.7 2 .7-2h.5z"/><g><path d="M-479.3 529.2h2.6c.1 1.4.8 2.7 3.4 2.7 2.4 0 2.9-1.1 2.9-2v-.5c0-1.3-.7-1.7-2.9-2.4l-2.2-.7c-2.4-.7-3.3-1.8-3.3-3.8v-.5c0-1.9 1.6-4 5.5-4 3.5 0 5.6 1.7 5.7 4.5h-2.6c-.1-1.3-.9-2.5-3.1-2.5s-2.8 1-2.8 1.8v.4c0 .9.5 1.4 2.5 2l2.2.7c2.5.8 3.8 2 3.8 4.2v.6c0 2.3-1.9 4.3-5.7 4.3-3.7 0-5.8-1.9-6-4.8zM-464.3 528.2v-4.5c0-3.4 2.1-5.7 5.9-5.7 3.6 0 5.4 2.1 5.5 4.8h-2.6c-.1-1.7-.9-2.6-2.9-2.6s-3.1 1.4-3.1 3.4v4.8c0 2 1.1 3.4 3.1 3.4s2.9-1 2.9-2.6h2.6c-.2 2.8-1.9 4.8-5.7 4.8-3.5 0-5.7-2.4-5.7-5.8zM-437.5 533.7h-2.8v-6.8h-6.2v6.8h-2.8v-15.4h2.8v6.4h6.2v-6.4h2.8v15.4zM-429.6 520.4v4.4h5.7v2.1h-5.7v4.6h6.2v2.2h-9v-15.4h9v2.1h-6.2zM-407.8 524.4v2.7c0 4-2.4 6.5-6.8 6.5h-4.5v-15.4h5.1c4.1.1 6.2 2.6 6.2 6.2zm-2.8 0c0-2.5-1.2-4-3.6-4h-2.1v11.1h1.7c2.7 0 4-1.4 4-4.3v-2.8zM-392.3 518.3v15.4h-2.4l-.2-1.4c-.9.9-2.2 1.7-4.2 1.7-3.3 0-5-2.3-5-5.3v-10.4h2.8v10.5c0 1.8.8 3 2.9 3 1.6 0 2.7-.8 3.4-1.7v-11.8h2.7zM-378.2 531.4v2.2h-9v-15.4h2.8v13.2h6.2zM-372.5 520.4v4.4h5.7v2.1h-5.7v4.6h6.2v2.2h-9v-15.4h9v2.1h-6.2z"/></g></svg>