<svg xmlns="http://www.w3.org/2000/svg" width="266.833" height="20" viewBox="0 0 266.833 20"><path d="M0 19.682L7.807.322h1.887l7.837 19.36h-1.8l-2.088-5.37h-9.84l-2.148 5.37H0zm4.41-6.908h8.622L8.736 1.948 4.41 12.774zM21.414 12.947c0 3.253 1.83 5.43 5.198 5.43 3.366 0 5.193-2.177 5.193-5.43V.322h1.742v12.625c0 4.27-2.64 7.054-6.935 7.054-4.356 0-6.94-2.757-6.94-7.053V.322h1.742v12.625zM41.814 19.682V1.89h-5.66V.322h13.09V1.89h-5.69v17.792zM50.05 10.015c0-5.195 2.76-9.983 8.478-9.983 5.89 0 8.474 4.644 8.474 9.983 0 5.227-2.756 9.984-8.474 9.984-1.482 0-2.76-.26-3.832-.78-3.192-1.628-4.645-5.14-4.645-9.205m8.478 8.36c4.7 0 6.647-4.237 6.647-8.36 0-4.12-1.947-8.356-6.647-8.356-4.645 0-6.647 4.294-6.647 8.356 0 2.062.523 4.122 1.597 5.72 1.073 1.538 2.727 2.64 5.05 2.64"/><path d="M71.118 19.682V.322h4.47c6.18 0 10.013 3.164 10.013 9.404 0 6.966-4.615 9.956-11.085 9.956h-3.397zm1.742-1.566h1.625c5.687 0 9.287-2.38 9.287-8.39 0-5.137-3.017-7.836-8.126-7.836H72.86v16.226zM89.37 19.682V.322h9.257V1.89H91.11v7.082h7.11v1.51h-7.11v7.633h7.837v1.567zM102.047 17.36c1.277.785 2.76 1.016 3.92 1.016 2.525 0 4.382-1.16 4.382-3.832 0-1.828-1.423-2.902-3.282-3.945l-1.74-.99c-1.8-1.014-3.106-2.232-3.106-4.47 0-3.48 2.96-5.107 5.98-5.107 1.16 0 2.262.173 3.394.61l-.173 1.74c-1.016-.49-2.147-.724-3.28-.724-2.147 0-4.12.956-4.12 3.394 0 1.598.984 2.44 2.61 3.338l1.742.988c2.032 1.16 3.803 2.554 3.803 5.195 0 3.454-2.816 5.427-6.3 5.427-1.48 0-2.756-.23-4.12-.842l.29-1.8zM116.382 19.682V.322h1.742v8.824l8.88-8.824h2.234l-9.43 9.085 10.244 10.275h-2.408l-9.52-9.78v9.78zM130.892 4.262c0-2.35 1.914-4.262 4.273-4.262s4.273 1.914 4.273 4.262c0 2.36-1.914 4.284-4.273 4.284-.583 0-1.143-.11-1.665-.334-1.54-.658-2.608-2.173-2.608-3.95m4.273 3.664c1.99 0 3.58-1.677 3.58-3.664 0-1.978-1.59-3.64-3.58-3.64-1.988 0-3.58 1.653-3.58 3.64 0 .99.4 1.9 1.046 2.583.647.658 1.542 1.08 2.535 1.08m-1.6-1.254V1.69h1.514c.893 0 1.676.372 1.676 1.304 0 .646-.597 1.105-1.243 1.205.398.087.61.298.758.632l.847 1.84h-.695l-.72-1.59c-.237-.498-.41-.66-1.046-.66h-.445v2.25h-.646zm.645-2.82h.57c.633 0 1.293-.173 1.293-.845 0-.645-.66-.744-1.317-.744h-.546v1.59zM150.118 19.68V.323h6.298c3.16 0 6.297 1.102 6.297 4.79 0 2.437-1.42 3.92-3.744 4.47 2.437.436 4.266 2.032 4.266 4.614 0 4.527-3.803 5.485-7.576 5.485h-5.542zm3.074-11.028h2.09c2.178 0 4.267-.726 4.267-3.25 0-2.207-1.916-2.902-3.833-2.902h-2.524v6.152zm0 8.852h2.032c2.235 0 4.788-.607 4.788-3.338 0-2.932-2.64-3.482-5.05-3.482h-1.77v6.82zM167.003.322h3.164v19.36h-3.164zM174.78 19.682V.322h4.76l5.98 15.905L191.437.322h4.79v19.36h-2.99V2.585l-6.356 17.097h-2.873l-6.386-17.097v17.097zM208.205 16.75c1.48.61 3.25.87 4.73.87 2.554 0 4.79-1.103 4.79-3.774 0-2.465-2.293-3.162-4.617-3.162h-2.553V8.507h2.178c2.7 0 4.703-.783 4.703-3.31 0-2.206-2.18-2.872-4.27-2.872-1.393 0-3.047.346-4.44.93l-.175-2.38c1.627-.554 3.31-.844 5.052-.844 3.398 0 6.938 1.19 6.938 4.906 0 2.468-1.624 4.005-3.946 4.587 2.38.32 4.323 1.887 4.323 4.354C220.917 18.2 217 20 212.965 20c-1.77 0-3.31-.2-4.935-.754l.175-2.496zM235.89 2.935c-1.133-.436-2.265-.61-3.514-.61-4.323 0-6.123 3.513-6.123 7.314.9-1.45 2.902-2.234 4.586-2.234 3.802 0 6.18 2.32 6.18 6.122 0 4.033-2.958 6.473-6.878 6.473-5.455 0-6.88-4.757-6.88-9.314 0-5.893 2.7-10.653 9.087-10.653 1.245 0 2.466.173 3.712.493l-.172 2.41zm-5.72 14.86c2.468 0 3.892-1.684 3.892-4.094 0-2.35-1.132-4.092-3.658-4.092-2.062 0-3.918 1.335-3.918 3.745 0 1.133.32 2.234.9 3.077.61.813 1.538 1.365 2.785 1.365M239.31 10.017c0-4.586 1.48-9.985 6.967-9.985 5.485 0 6.965 5.427 6.965 9.985 0 4.585-1.394 9.983-6.965 9.983-1.424 0-2.586-.29-3.484-.898-2.728-1.713-3.513-5.603-3.482-9.085m6.966 7.69c3.512 0 3.832-4.585 3.832-7.69 0-3.25-.32-7.69-3.832-7.69-3.513 0-3.832 4.468-3.832 7.69 0 1.598.088 3.482.582 5.022.493 1.537 1.478 2.668 3.25 2.668"/><path d="M257.313 5.352V1.115h-1.65V.37h4.323v.745h-1.665v4.237h-1.007zm3.37 0V.37h1.515l1.59 3.963L265.32.37h1.516v4.982h-.947v-4.35l-1.69 4.35h-.892l-1.715-4.35v4.35h-.908z"/></svg>