<svg xmlns="http://www.w3.org/2000/svg" viewBox="0 0 276 16"><path d="M9.2 11h-6l-1.5 4.8H0L5 .3h2.3l5.2 15.4h-1.7L9.2 11zM3.6 9.6h5.1L6.2 1.5 3.6 9.6zM26.4.3v15.4h-1.5l-.1-1.9c-.9 1-2.3 2.2-4.7 2.2-3.4 0-4.8-2.3-4.8-5.2V.3H17v10.5c0 2.1.9 3.8 3.5 3.8 2.3 0 3.6-1.3 4.3-2.5V.3h1.6zM40.7 1.7h-4.6v14.1h-1.7V1.7h-4.6V.3h10.8v1.4zM55 6.3v3.4c0 3.5-1.9 6.2-6 6.2s-6-2.8-6-6.2V6.3C43 2.7 44.9 0 49 0c4.2 0 6 2.8 6 6.3zm-10.3 0v3.5c0 2.7 1.3 4.8 4.3 4.8 3.1 0 4.3-2.1 4.3-4.8V6.3c0-2.8-1.3-5-4.3-5-3 .1-4.3 2.1-4.3 5zM70 6.5v2.7c0 4-2.4 6.6-6.8 6.6h-3.8V.3H63.7C67.9.3 70 2.8 70 6.5zm-1.7-.1c0-3-1.6-4.8-4.7-4.8H61v12.7h2.2c3.4 0 5.1-1.8 5.1-5.2V6.4zM75.8 1.6v5.5H82v1.4h-6.2v5.9h6.7v1.3h-8.3V.3h8.4v1.3h-6.8zM85.3 11.5h1.6c.1 1.7 1.1 3.2 4.1 3.2 3 0 3.7-1.5 3.7-2.6v-.5c0-1.6-.9-2.1-3.2-2.9L89.3 8c-2.4-.8-3.4-1.8-3.4-3.7v-.6C85.9 2 87.3 0 91.1 0c3.5 0 5.2 1.9 5.3 4.3h-1.6c-.1-1.5-1-3-3.7-3s-3.5 1.3-3.5 2.4v.4c0 1.1.7 1.8 2.8 2.5l2.2.7c2.5.8 3.8 1.8 3.8 4v.6c0 2.1-1.5 4.1-5.4 4.1-3.6 0-5.5-1.9-5.7-4.5zM111.5 14.5v1.1c-.2.1-.5.2-.9.2-1 0-1.6-.4-2.4-1.4L104 8.3l-2.2 2.7v4.7h-1.6V.3h1.6v8.5l6.8-8.5h1.8L105 7.1l4.6 6.7c.4.6.8.8 1.4.8.2 0 .4 0 .5-.1zM115.6 1.9v.5c0 .9-.7 1.6-1.8 1.6-1 0-1.8-.7-1.8-1.6v-.5c0-.8.8-1.5 1.8-1.5 1.1 0 1.8.7 1.8 1.5zm-.3 0c0-.7-.6-1.3-1.6-1.3-.9 0-1.6.6-1.6 1.3v.6c0 .8.7 1.4 1.6 1.4 1 0 1.6-.5 1.6-1.4v-.6zm-.7 1.2c.1 0 .1 0 0 0v.2h-.2c-.1 0-.2-.1-.3-.2l-.4-.7h-.4v.9h-.3V1.2h.6c.4 0 .7.2.7.6V2c0 .3-.1.4-.4.5l.3.6h.4zm-.4-1.2v-.2c0-.2-.2-.3-.5-.3h-.3v.8h.3c.3 0 .5-.1.5-.3zM135.1 10.8v.9c0 2.3-2.3 4-6 4h-4.7V.3h4.8c3.3 0 5.5 1.4 5.5 3.8v1c0 1.6-1.2 2.4-2.3 2.6 1.1.2 2.7 1 2.7 3.1zm-7.9-8.5V7h2.4c1.3 0 2.2-.6 2.2-1.9v-.8c0-1.3-1-2-2.6-2h-2zm5.1 8.5c0-1.2-.9-1.9-2.6-1.9h-2.6v4.8h2c2 0 3.2-.7 3.2-2.1v-.8zM138.5.3h2.8v15.4h-2.8V.3zM160.2.3v15.4h-2.7V4.8l-3.3 10.9h-3l-3.4-11.4v11.4h-2.5V.3h3.6l3.8 13.2L156.6.3h3.6zM169.1 11.7h2.6c.2 1.1 1.1 2.2 3 2.2 1.5 0 2.9-.7 2.9-2.4v-.6c0-1.9-2-2.4-3.1-2.4h-1.4v-2h1.4c1.1 0 2.5-.4 2.5-2v-.4c0-1.4-1.1-1.9-2.5-1.9-1.7 0-2.5 1-2.6 2.2h-2.6c.1-2.3 2-4.3 5.4-4.3 2.9 0 5 1.5 5 3.8v.9c0 1.4-1.2 2.4-2.6 2.8 1.3.2 3.2 1.4 3.2 3.3v1c0 2.5-2.3 4.3-5.6 4.3-3.5-.2-5.3-2.2-5.6-4.5zM194 10.2v.9c0 2.5-1.9 4.9-5.6 4.9-3.5 0-5.4-2.2-5.4-4.9V5.4c0-2.5 1.5-5.4 5.5-5.4 3.1 0 5.2 1.5 5.3 4.1h-2.6c0-1.3-1.1-2-2.7-2-1.9 0-2.8 1.1-2.8 3.1v2.2c.8-1 2-1.6 3.7-1.6 2.9 0 4.6 2 4.6 4.4zm-2.7 0c0-1.3-.8-2.4-2.3-2.4-1.5 0-2.5.6-3.4 1.7v1.7c0 1.4.9 2.6 2.8 2.6s2.9-1.2 2.9-2.8v-.8zM196.7 10.6V5.4c0-3.4 2.1-5.4 5.7-5.4 3.5 0 5.5 2 5.5 5.4v5.2c0 3.3-2 5.4-5.5 5.4-3.6 0-5.7-2.1-5.7-5.4zm8.5.1V5.4c0-2.2-1.1-3.3-2.8-3.3-1.8 0-2.9 1.1-2.9 3.3v5.3c0 2.1 1.1 3.2 2.9 3.2 1.7-.1 2.8-1.1 2.8-3.2zM209.4.3h1.9v.3h-.8v2h-.4v-2h-.8V.3zm4.8 0v2.3h-.3V.9l-.7 1.8h-.4l-.7-1.8v1.8h-.3V.3h.5l.7 2 .7-2h.5zM233.6 4.7V6c0 2.8-2.3 4.5-5.9 4.5h-1.9v5.3H223V.3h5.1c3.3 0 5.5 1.6 5.5 4.4zm-2.8.1c0-1.7-1.1-2.4-2.8-2.4h-2.2v5.9h1.9c2 0 3.2-.7 3.2-2.5v-1zM245.8 13.5v2.2h-9V.3h2.8v13.2h6.2zM256.9 11.7h-5.3l-1.2 4.1h-2.8L252.3.4h3.8l5 15.4h-2.9l-1.3-4.1zm-4.7-2.3h4.1l-2-7.2-2.1 7.2zM275.6.3v15.4h-3.2l-6.1-11.9v11.9h-2.4V.3h3.3l5.9 11.6V.3h2.5z"/></svg>