<svg xmlns="http://www.w3.org/2000/svg" width="138" height="50" viewBox="0 57 138 50" enable-background="new 0 57 138 50"><path d="M0 76.953l7.94-19.63h1.956l7.937 19.63h-1.845l-2.175-5.422H3.806l-2.172 5.423H0zm4.568-7.048h8.81L9.028 58.95l-4.46 10.955zM21.857 70.12c0 3.255 1.85 5.534 5.327 5.534 3.372 0 5.33-2.17 5.33-5.535V57.323h1.74V70.12c0 4.338-2.717 7.16-7.07 7.16-4.456 0-7.065-2.822-7.065-7.16V57.323h1.737V70.12zM42.63 76.953V58.84h-5.767v-1.516H50.13v1.625H44.37v18.003h-1.74zM51 67.084C51 61.772 53.83 57 59.593 57c5.98 0 8.59 4.662 8.59 10.084 0 5.316-2.83 10.087-8.59 10.087-1.525 0-2.83-.217-3.917-.756-3.262-1.63-4.678-5.207-4.678-9.33zm8.594 8.46c4.782 0 6.74-4.337 6.74-8.46 0-4.23-1.958-8.46-6.74-8.46-4.674 0-6.742 4.34-6.742 8.46 0 2.062.544 4.232 1.63 5.748 1.09 1.626 2.72 2.713 5.112 2.713zM72.424 76.953v-19.63h4.567c6.31 0 10.222 3.255 10.222 9.542 0 7.05-4.675 10.088-11.307 10.088h-3.48zm1.743-1.626h1.626c5.767 0 9.465-2.386 9.465-8.462 0-5.203-3.045-7.916-8.267-7.916h-2.823v16.377zM90.912 76.953v-19.63h9.46v1.626H92.76v7.16h7.176v1.515H92.76v7.702h7.938v1.626h-9.786zM103.85 74.566c1.305.76 2.827.98 4.027.98 2.61 0 4.46-1.193 4.46-3.906 0-1.843-1.415-2.927-3.373-4.015l-1.744-.865c-1.85-.98-3.153-2.28-3.153-4.557 0-3.578 3.048-5.203 6.094-5.203 1.196 0 2.286.215 3.48.646l-.22 1.738c-1.082-.545-2.17-.76-3.368-.76-2.174 0-4.242.975-4.242 3.473 0 1.626.978 2.49 2.61 3.36l1.74.975c2.067 1.192 3.916 2.604 3.916 5.316 0 3.47-2.825 5.53-6.417 5.53-1.524 0-2.83-.218-4.245-.865l.434-1.847zM118.424 76.953v-19.63h1.74v8.896l9.027-8.896h2.287l-9.57 9.217 10.434 10.413h-2.495l-9.68-9.87v9.87h-1.74zM133.21 59.385c0-1.3 1.09-2.385 2.395-2.385 1.306 0 2.396 1.084 2.396 2.385 0 1.303-1.09 2.387-2.395 2.387-.328 0-.652-.11-.978-.22-.87-.323-1.418-1.193-1.418-2.167zm2.394 2.058c1.09 0 1.958-.975 1.958-2.06 0-1.086-.868-2.06-1.958-2.06-1.087 0-1.957.865-1.957 2.06 0 .544.22 1.085.543 1.41.328.327.872.65 1.414.65zm-.977-.755v-2.713h.868c.543 0 .98.215.98.76 0 .324-.324.65-.652.65.215 0 .328.215.435.324l.437.978h-.437l-.435-.87c-.11-.327-.22-.327-.547-.327h-.215v1.304h-.434v-.106zm.435-1.52h.328c.324 0 .762-.11.762-.434 0-.327-.328-.437-.762-.437h-.328v.87zM2.287 106.563V86.93h6.41c3.265 0 6.42 1.09 6.42 4.88 0 2.5-1.416 4.016-3.808 4.562 2.5.43 4.35 2.062 4.35 4.66 0 4.554-3.913 5.532-7.72 5.532H2.287zm3.043-11.17h2.174c2.175 0 4.35-.76 4.35-3.26 0-2.27-1.96-2.922-3.913-2.922H5.33v6.183zm0 9.003h2.067c2.282 0 4.894-.655 4.894-3.364 0-2.927-2.72-3.578-5.11-3.578H5.33v6.942zM19.357 106.563V86.93h3.262v19.634h-3.263zM27.294 106.563V86.93h4.787l6.09 16.165 5.982-16.164h4.894v19.634H46V89.21l-6.416 17.354H36.65L30.122 89.21v17.354h-2.83zM61.333 103.637c1.522.646 3.262.865 4.783.865 2.61 0 4.896-1.084 4.896-3.797 0-2.49-2.286-3.25-4.678-3.25h-2.61v-2.172H65.9c2.722 0 4.783-.76 4.783-3.363 0-2.272-2.175-2.928-4.35-2.928-1.41 0-3.045.328-4.57.98l-.213-2.387c1.63-.54 3.373-.87 5.108-.87 3.48 0 7.07 1.194 7.07 4.99 0 2.49-1.63 4.01-4.02 4.666 2.39.324 4.348 1.95 4.348 4.444 0 4.338-4.025 6.186-8.05 6.186-1.845 0-3.37-.22-5.003-.76l.33-2.603zM89.497 89.534c-1.195-.433-2.285-.646-3.593-.646-4.345 0-6.196 3.574-6.196 7.37.874-1.517 2.942-2.276 4.674-2.276 3.92 0 6.315 2.39 6.315 6.178 0 4.124-3.048 6.622-6.96 6.622-5.55 0-6.965-4.884-6.965-9.436 0-5.968 2.72-10.848 9.243-10.848 1.31 0 2.5.218 3.807.546l-.325 2.49zm-5.87 15.076c2.498 0 3.912-1.734 3.912-4.123 0-2.382-1.195-4.116-3.7-4.116-2.064 0-4.02 1.303-4.02 3.79 0 1.196.326 2.28.867 3.148.763.76 1.745 1.302 2.94 1.302zM92.98 96.8c0-4.666 1.516-10.084 7.068-10.084 5.542 0 7.065 5.53 7.065 10.084 0 4.66-1.415 10.087-7.065 10.087-1.418 0-2.613-.323-3.59-.865-2.725-1.74-3.48-5.746-3.48-9.222zm7.07 7.81c3.584 0 3.91-4.665 3.91-7.81 0-3.252-.326-7.81-3.91-7.81-3.592 0-3.92 4.558-3.92 7.81 0 1.632.11 3.577.547 5.097.542 1.52 1.52 2.713 3.372 2.713zM109.287 89.43v-2.386h-.867v-.437h2.392v.437h-.98v2.385h-.545zm1.85 0v-2.822h.874l.865 2.17.872-2.17h.87v2.82h-.542v-2.384l-.98 2.385h-.54l-.98-2.386v2.385h-.44z"/></svg>