<svg xmlns="http://www.w3.org/2000/svg" width="20" height="20" viewBox="0 57 20 20" enable-background="new 0 57 20 20"><path fill="#4675A8" d="M9.333 77h1.333l.666-2.5c.815-.143 1.556-.357 2.223-.713L15.85 75.5l1.038-.857-1.11-2.5c.444-.5.814-1 1.185-1.57l2.74.215L20 69.5l-2.222-1.355c.073-.36.073-.715.073-1.145 0-.285 0-.643-.072-.928L20 64.715l-.37-1.285-2.667.213c-.296-.57-.74-1.143-1.185-1.643l1.11-2.356-1.037-.857-2.146 1.643c-.74-.356-1.48-.643-2.297-.785L10.667 57H9.333l-.667 2.715c-.815.143-1.556.357-2.222.714L4.37 58.857l-1.037.786L4.37 61.93c-.52.5-.963 1.143-1.333 1.785L.297 63.5 0 64.786l2.296 1.43c-.074.284-.074.57-.074.856 0 .428 0 .785.074 1.213L.222 69.572l.37 1.285 2.594-.213c.37.643.74 1.143 1.26 1.713l-1.038 2.357 1.037.857 2.148-1.644c.666.29 1.407.574 2.148.646L9.334 77zM10 62.785c2.444 0 4.444 1.93 4.444 4.287s-2 4.357-4.444 4.357-4.444-1.93-4.444-4.358c0-2.357 2-4.287 4.444-4.287z"/></svg>