<svg xmlns="http://www.w3.org/2000/svg" width="20" height="20" viewBox="0 57 20 20" enable-background="new 0 57 20 20"><path fill="#4675A8" d="M0 67c0 5.5 4.5 10 10 10s10-4.5 10-10-4.5-10-10-10S0 61.5 0 67zm7.583-4.25c-.083-.084-.917-2.084-.917-2.084 2.333-1.582 7-.832 7.583 1.918.582 2.582-1.168 4.082-2.084 4.582-.917.5-1.25 1.25-1.25 1.667v.834h-2.5v-1.834c0-.833.667-1.333 1.417-1.833.833-.5 2-1.75 1.333-2.916-.666-1.5-2.5-.918-3.583-.334zM8 72.833c0-.916.75-1.666 1.667-1.666s1.667.75 1.667 1.666c0 .917-.75 1.667-1.667 1.667S8 73.75 8 72.833z"/></svg>