<svg xmlns="http://www.w3.org/2000/svg" width="20" height="20" viewBox="-18.5 38.5 20 20" enable-background="new -18.5 38.5 20 20"><path fill="#999" d="M1.46 58.5c.3-.1-1.092-3.378-3.376-3.378-2.186 0-3.673-1.06-4.27-1.447-.298-.387-.298-.965-.298-2.122.498-.39.895-.87.993-.965l.2-.772c.097.097.494-.19.595-.387.1-.194.1-.288.2-.58.195-.286.393-.674.393-.963 0-.288-.1-1.352 0-1.446.1-.192.2-.192.1-.387 0-.193-.1-.29-.297-.387 0-.193.198-2.023.1-2.508-.1-.578-.595-1.447-.595-1.447h-.1s0-.192-.1-.388c-.1-.29-1.49-1.16-2.084-1.543-.595-.388-1.29-.29-1.787-.193-.596 0-1.886.48-2.382.675-.497.194-.2-.095-.597.194-.496.192-1.59 2.312-1.885 2.7-.2.482 0 .77 0 1.158.1.387.1 1.352 0 1.445 0 .097-.1.194-.1.29s0 .096.1.39c0 .386.1.867 0 1.35 0 .482.197.87.297 1.06.1.194.1.483.297.68.1.192.2.192.498.192.098.29.197.965.396 1.16.1.094.496.385.894.77 0 1.06 0 1.64-.297 2.123-.795.483-1.79 1.542-3.972 1.542-2.283 0-2.778 2.507-2.88 3.09v.093H1.46z"/></svg>