<svg xmlns="http://www.w3.org/2000/svg" xmlns:xlink="http://www.w3.org/1999/xlink" width="26" height="26" viewBox="0 0 26 26"><defs><path id="a" d="M24 26H2c-1.104 0-2-.896-2-2V5c0-1.104.896-2 2-2h1v1c0 1.656 1.342 3 3 3 1.657 0 3-1.343 3-3V3h8v1c0 1.656 1.344 3 3 3s3-1.344 3-3V3h1c1.104 0 2 .896 2 2v19c0 1.104-.896 2-2 2zm1-17H1v15h24V9zm-14.932 6.828c.198-.313.297-.646.297-.992 0-.772-.417-1.16-1.247-1.16-.724 0-1.415.287-2.074.862v-1.63c.73-.472 1.555-.708 2.472-.708.858 0 1.53.215 2.012.647.482.432.724 1.015.724 1.75 0 .98-.588 1.994-1.764 3.04L8.76 19.173v.035h3.41v1.533H6.64V19.3l2.408-2.303c.483-.464.824-.853 1.02-1.17zm6.768 3.337c.265-.202.396-.485.396-.85 0-.375-.163-.663-.49-.866-.325-.204-.774-.306-1.344-.306h-.756v-1.418h.697c1.093 0 1.64-.363 1.64-1.09 0-.685-.42-1.025-1.26-1.025-.562 0-1.11.183-1.64.546v-1.51c.59-.3 1.275-.447 2.062-.447.858 0 1.527.193 2.006.58.48.386.718.888.718 1.506 0 1.097-.556 1.783-1.67 2.062v.03c.593.072 1.063.29 1.405.645.346.358.518.796.518 1.316 0 .784-.287 1.404-.862 1.86-.572.458-1.367.687-2.378.687-.868 0-1.573-.14-2.115-.422v-1.61c.562.41 1.218.615 1.97.615.472 0 .84-.1 1.103-.305zM19.968 6c-1.087 0-1.97-.882-1.97-1.97V1.97C18 .882 18.882 0 19.97 0c1.088 0 1.968.882 1.968 1.97v2.062c0 1.087-.88 1.968-1.968 1.968zm-14 0C4.882 6 4 5.12 4 4.03V1.97C4 .882 4.882 0 5.968 0c1.088 0 1.97.882 1.97 1.97v2.062C7.938 5.12 7.056 6 5.968 6z"/></defs><use xlink:href="#a" overflow="visible" fill-rule="evenodd" clip-rule="evenodd" fill="#333"/><clipPath><use xlink:href="#a" overflow="visible"/></clipPath></svg>
