<svg xmlns="http://www.w3.org/2000/svg" viewBox="0 0 28 20" width="28" height="20"><path fill="#333" d="M28 17c0-.7-.5-1.1-.8-1.6-.2-.2-.4-.5-.6-.6-.2-.2-.7-.3-1-.4l-4.3-2.1V11c1-.5 1.7-1.8 1.8-1.9.1 0 0-1 0-1s-.1-2 0-2c.1.1 0-.7 0-1 0-1.9-1.6-2.6-3.6-2.6C17.4 2.4 16 3 16 5c0 .3-.1 2.3 0 2 .1 0 0 .6 0 1v1c.1 0 .7.8.8 1.2.1.1.3.2.4.3.4.3.8.7 1.1 1.1.7.9.6 1.4.6 2.5v6h9v-2c.1-1.1.1-1 .1-1.1zm-11.5-4.1c-.1-.1-.2-.1-.2-.2l-.4-.4c-.2-.2-.6-.3-.9-.4l-4.3-2.1V8.5C11.6 8 12 7 12 7V5c0-.4.3-.8 0-1 .1-.3 0-.7 0-1 0-1.9-1.3-3-3.3-3C6.7 0 5 1 5 3c0 .3-.1.7 0 1-.3.2 0 .6 0 1v2s.8 1 1.7 1.5v1.3l-4.2 2.1c-.3.1-.6.2-.9.4-.2.2-.5.2-.6.4-.3.5-.6 1.4-.6 1.4H0v5.7h17.4v-4.6l-.1-.7c-.1-.5-.5-1.1-.8-1.6z"/></svg>
