<svg xmlns="http://www.w3.org/2000/svg" viewBox="0 0 24 24" width="24" height="24"><g><path d="M8.954 18.746L7.67 19.868c-.96.962-2.724.962-3.686 0-.48-.48-.802-1.122-.802-1.763 0-.642.16-1.283.802-1.924l4.33-4.168c.96-.962 2.564-2.244 3.846-.962.642.48 1.443.48 2.085 0 .64-.64.64-1.442 0-2.084-2.085-2.084-5.13-1.603-7.856.962l-4.33 4.33c-.962.96-1.603 2.404-1.603 3.847s.64 2.725 1.603 3.847c.962.962 2.405 1.604 3.848 1.604s2.725-.642 3.847-1.604l1.283-1.122c.48-.64.48-1.443 0-2.084-.64-.48-1.603-.48-2.084 0zM21.94 2.233c-2.245-2.245-5.29-2.405-7.375-.32l-1.443 1.442c-.64.64-.64 1.443 0 2.084.48.64 1.443.64 2.084 0l1.443-1.444c.96-.962 2.404-.64 3.366.32.48.482.802 1.123.802 1.764 0 .642-.32 1.283-.802 1.924l-4.49 4.49c-2.083 2.084-3.045 1.122-3.526.64-.48-.48-1.443-.48-2.084 0-.48.642-.48 1.444 0 2.085.962.96 2.084 1.442 3.206 1.442 1.443 0 2.886-.64 4.33-2.084l4.488-4.49c.962-.96 1.603-2.404 1.603-3.847 0-1.602-.64-3.045-1.603-4.007z" fill="#333"/></g></svg>
