<svg xmlns="http://www.w3.org/2000/svg" width="68" height="20" viewBox="0 0 68 20"><path d="M0 20V0h5.66c3.99 0 7.655 1.326 7.655 5.745 0 4.642-3.664 6.3-7.878 6.3H3.222V20H0zM3.222 9.617h1.552c2.662 0 5.21-.557 5.21-3.872 0-2.537-1.993-3.422-4.546-3.422H3.222v7.294zM16.202 20V0h3.32v17.348h8.324V20H16.202zM29.398 20L37.27 0h4.11l7.874 20h-3.44l-1.882-5.198h-9.325L32.62 20h-3.222zm5.988-7.623h7.658L39.272 2.323l-3.886 10.054zM51.7 20V0h4.65l8.655 17.02V0H68v20h-4.772L54.585 2.985V20H51.7z"/></svg>