<?xml version="1.0" encoding="utf-8"?>
<!-- Generator: Adobe Illustrator 18.1.1, SVG Export Plug-In . SVG Version: 6.00 Build 0)  -->
<!DOCTYPE svg PUBLIC "-//W3C//DTD SVG 1.1//EN" "http://www.w3.org/Graphics/SVG/1.1/DTD/svg11.dtd">
<svg version="1.1" id="Layer_1" xmlns="http://www.w3.org/2000/svg" xmlns:xlink="http://www.w3.org/1999/xlink" x="0px" y="0px"
	 viewBox="0 0 17 17" enable-background="new 0 0 17 17" width="17" height="17" xml:space="preserve">
<path fill-rule="evenodd" clip-rule="evenodd" fill="#304F73" d="M16.2,4.6L16,4.8L12.2,1l0.1-0.1c1.1-1.1,2.8-1.1,3.8,0
	C17.3,1.8,17.2,3.6,16.2,4.6z M13.4,0.5L13,0.9l3,3l0.4-0.4L13.4,0.5z M6.7,14.2L0,17l2.8-6.5l8.3-8.4l3.8,3.8L6.7,14.2z M3.3,10.8
	l-1.7,3.9l0.5,0.6l4.1-1.7l-0.7-1.2L4,13l0.5-1.6L3.3,10.8z"/>
</svg>
