<svg xmlns="http://www.w3.org/2000/svg" width="20" height="20" viewBox="0 0 20 20"><g fill="#304F73"><path d="M18.42.002H3.683c-.418 0-.82.17-1.116.475L.463 2.64C.167 2.943 0 3.355 0 3.785V18.38C0 19.275.707 20 1.58 20h16.84c.873 0 1.58-.727 1.58-1.62V1.622C20 .727 19.293 0 18.42 0v.002zM3.683 2.705c0-.595.474-1.08 1.053-1.08h8.95c.577 0 1.052.484 1.052 1.08v4.863c0 .596-.476 1.08-1.054 1.08h-8.95c-.58 0-1.053-.484-1.053-1.08V2.705zm13.684 15.133H2.628v-7.026h14.74v7.026zM8.42 2.705H5.262v4.863H8.42V2.705z"/></g></svg>