<?xml version="1.0" encoding="utf-8"?>
<!-- Generator: Adobe Illustrator 18.1.1, SVG Export Plug-In . SVG Version: 6.00 Build 0)  -->
<svg version="1.1" id="Layer_1" xmlns="http://www.w3.org/2000/svg" xmlns:xlink="http://www.w3.org/1999/xlink" x="0px" y="0px"
	 viewBox="0 0 16 16" enable-background="new 0 0 16 16" width="16" height="16" xml:space="preserve">
<path fill-rule="evenodd" clip-rule="evenodd" fill="#333333" d="M8,16c-4.4,0-8-3.6-8-8c0-4.4,3.6-8,8-8c4.4,0,8,3.6,8,8
	C16,12.4,12.4,16,8,16z M8.1,1.5C4.5,1.5,1.6,4.4,1.6,8c0,3.6,2.9,6.5,6.5,6.5c3.6,0,6.5-2.9,6.5-6.5C14.6,4.4,11.7,1.5,8.1,1.5z
	 M8,5.4c-0.6,0-1.2-0.5-1.2-1.2S7.4,3.1,8,3.1c0.6,0,1.2,0.5,1.2,1.2S8.7,5.4,8,5.4z M9.1,12.2H7V6.9h2.1V12.2z"/>
</svg>
