<svg xmlns="http://www.w3.org/2000/svg" width="34" height="13" viewBox="0 0 34 13"><path d="M9.365 11.47H6.352C3.74 11.47 1.53 9.296 1.53 6.5c0-2.692 2.11-4.97 4.822-4.97h3.013c2.612 0 4.822 2.174 4.822 4.97-.1 2.796-2.21 4.97-4.822 4.97z" fill="none" stroke="#4675a8" stroke-width="3.06"/><path d="M23.63 8.57H10.17c-1.006 0-1.81-.827-1.81-1.863v-.414c0-1.036.804-1.864 1.81-1.864h13.46c1.005 0 1.808.827 1.808 1.863v.414c0 1.036-.803 1.864-1.808 1.864z" fill="#4675a8"/><path d="M27.648 11.47h-3.013c-2.612 0-4.822-2.174-4.822-4.97 0-2.692 2.11-4.97 4.822-4.97h3.013c2.612 0 4.822 2.174 4.822 4.97s-2.21 4.97-4.822 4.97z" fill="none" stroke="#4675a8" stroke-width="3.06"/></svg>
