<svg xmlns="http://www.w3.org/2000/svg" width="34" height="13" viewBox="0 0 34 13"><g fill="none"><path d="M4 13.35h2.5M6.5 13.35h1.6"/></g><path d="M10 9.75s0 1.083 0 0H6c-2 0-3-1.083-3-3.25s1-3.25 3-3.25H14.938c-1-2.167-2.86-3.25-4.86-3.25H6C3 0 0 3.25 0 6.5S3 13 6 13h4c2 0 4-1.083 5-3.25zM24.01 3.255s0-1.083 0 0h3.996c1.998 0 2.997 1.083 2.997 3.248s-1 3.248-2.997 3.248H19c1 2.167 3.003 3.26 5 3.257L28.007 13C31.003 12.994 34 9.75 34 6.503 34 3.255 31.003.007 28.006.007H24.01c-1.998 0-3.995 1.083-4.994 3.248z" fill="#4675a8"/></svg>
