<svg xmlns="http://www.w3.org/2000/svg" width="20" height="20" viewBox="0 0 20 20"><path fill-rule="evenodd" clip-rule="evenodd" fill="#666" d="M0 7.34c0 4.054 3.288 7.343 7.34 7.343 1.733 0 3.326-.604 4.574-1.602l.41.413c-.087.46.052.953.404 1.314l4.765 4.764c.57.573 1.505.573 2.077 0 .572-.572.572-1.505 0-2.077l-4.765-4.764c-.36-.354-.85-.493-1.313-.405l-.41-.41c.997-1.25 1.6-2.843 1.6-4.574C14.68 3.29 11.39 0 7.34 0 3.287 0 0 3.29 0 7.34m2.202 0c0-2.84 2.298-5.14 5.14-5.14 2.84 0 5.137 2.3 5.137 5.14 0 2.843-2.3 5.14-5.14 5.14s-5.138-2.297-5.138-5.14"/></svg>