<svg xmlns="http://www.w3.org/2000/svg" xmlns:xlink="http://www.w3.org/1999/xlink" width="15" height="20" viewBox="0 0 15 20"><defs><path id="a" d="M0 3.815V1.912h15v1.903H0zM4.05 0h6.96v.887H4.05V0zM1.06 4.715h12.942v13.7c-.09 1.65-1.486 1.585-1.486 1.585H2.67c-1.917-.404-1.61-1.44-1.61-1.44V4.716zm9.404 13.034c0 .43.368.783.82.783.45 0 .82-.353.82-.784V7.026c0-.43-.37-.78-.82-.78-.452 0-.82.35-.82.78V17.75zm-3.833.128c0 .39.335.712.746.712s.928-.32.928-.712V7.014c0-.393-.517-.71-.928-.71s-.745.317-.745.71v10.864zm-3.92-.13c0 .418.355.754.79.754.44 0 .79-.336.79-.753V7.026c0-.415-.352-.75-.79-.75-.436 0-.79.335-.79.75V17.75z"/></defs><use xlink:href="#a" overflow="visible" fill-rule="evenodd" clip-rule="evenodd" fill="#304F73"/><clipPath><use xlink:href="#a" overflow="visible"/></clipPath></svg>
