<?xml version="1.0" encoding="utf-8"?>
<!-- Generator: Adobe Illustrator 18.1.1, SVG Export Plug-In . SVG Version: 6.00 Build 0)  -->
<!DOCTYPE svg PUBLIC "-//W3C//DTD SVG 1.1//EN" "http://www.w3.org/Graphics/SVG/1.1/DTD/svg11.dtd">
<svg version="1.1" id="Layer_1" xmlns="http://www.w3.org/2000/svg" xmlns:xlink="http://www.w3.org/1999/xlink" x="0px" y="0px"
	 viewBox="0 0 20 20" enable-background="new 0 0 20 20" width="20" height="20" xml:space="preserve">
<path fill-rule="evenodd" clip-rule="evenodd" fill="#4676A9" d="M8.6,5.7c0.1-0.4,0.2-0.8,0.2-1.3C8.8,2,6.8,0,4.4,0
	c-0.5,0-1,0.1-1.4,0.2L5,2.3c0.3,0.3,0.5,0.8,0.5,1.3c0,1-0.9,1.9-1.9,1.9c-0.5,0-1-0.2-1.3-0.5L0.2,2.9C0.1,3.4,0,3.9,0,4.4
	c0,2.4,2,4.4,4.4,4.4c0.4,0,0.9-0.1,1.3-0.2l10.9,10.9c0.3,0.3,0.9,0.5,1.4,0.5c1.1,0,2.1-0.9,2.1-2.1c0-0.5-0.2-1-0.5-1.4L8.6,5.7z
	 M17,17.8c0-0.4,0.3-0.7,0.7-0.7c0.4,0,0.7,0.3,0.7,0.7c0,0.4-0.3,0.7-0.7,0.7C17.4,18.5,17,18.2,17,17.8z"/>
</svg>
